<?xml version="1.0" encoding="utf-8"?>
<!-- Generator: Adobe Illustrator 28.2.0, SVG Export Plug-In . SVG Version: 6.00 Build 0)  -->
<svg version="1.1" id="Layer_1" xmlns="http://www.w3.org/2000/svg" xmlns:xlink="http://www.w3.org/1999/xlink" x="0px" y="0px"
	 viewBox="0 0 660 80" style="enable-background:new 0 0 660 80;" xml:space="preserve">
<style type="text/css">
	.st0{fill:none;}
</style>
<path d="M262,0h68.5v12.7h-27.2v66.6h-13.6V12.7H262V0z M149,0v12.7H94v20.4h44.3v12.6H94v21h55v12.6H80.5V0h68.7H149z M183.3,0
	h-17.8l63.8,79.4h17.9l-32-39.7l32-39.6h-17.9l-23,28.6l-23-28.6V0z M201.6,56.7l-9-11l-27.1,33.7h17.8L201.6,56.7z"/>
<path d="M81,79.3L17,0H0v79.3h13.6V17l50.2,62.3H81z"/>
<g>
	<rect x="353" class="st0" width="314" height="80"/>
	<path d="M364.5,3.2h27.4c16.6,0,28.1,8.5,28.1,23.1v0.2c0,16-13.6,24.1-29.5,24.1h-20.4v28.2h-5.6V3.2z M390.8,45.5
		c14,0,23.5-7.2,23.5-18.6v-0.2c0-12-9.4-18.3-22.9-18.3h-21.4v37H390.8z"/>
	<path d="M433.3,41.3V41c0-20.7,15.2-39.1,38.1-39.1s37.9,18.3,37.9,38.9V41c0,20.7-15.2,39.1-38.1,39.1S433.3,61.9,433.3,41.3z
		 M503.5,41.3V41c0-18.7-13.6-34-32.3-34c-18.7,0-32.1,15.1-32.1,33.8V41c0,18.7,13.6,34,32.3,34S503.5,59.9,503.5,41.3z"/>
	<path d="M528.4,3.2h5.6v49.7l48.2-49.7h7.7l-33,33.4l34.5,42.2h-7.3l-31.1-38.2l-18.8,19v19.2h-5.6V3.2z"/>
	<path d="M605.6,3.2h53.8v5.2h-48.2v29.7h43.3v5.2h-43.3v30.3H660v5.2h-54.3V3.2z"/>
</g>
</svg>
