<?xml version="1.0" encoding="utf-8"?>
<!-- Generator: Adobe Illustrator 28.2.0, SVG Export Plug-In . SVG Version: 6.00 Build 0)  -->
<svg version="1.1" id="Layer_1" xmlns="http://www.w3.org/2000/svg" xmlns:xlink="http://www.w3.org/1999/xlink" x="0px" y="0px"
	 viewBox="0 0 283 64" style="enable-background:new 0 0 283 64;" xml:space="preserve">
<style type="text/css">
	.st0{fill:none;}
</style>
<g>
	<rect y="16" class="st0" width="283" height="32"/>
	<path d="M6.3,16.9h9.6c2.7,0,4.7,0.7,6.1,2.1c1.2,1.2,1.8,2.8,1.8,4.8v0.1c0,3.4-1.8,5.5-4.5,6.5l5.1,7.5H19l-4.5-6.7h-3.6v6.7H6.3
		V16.9z M15.6,27.1c2.3,0,3.5-1.2,3.5-3v-0.1c0-2-1.4-3-3.6-3h-4.6v6H15.6z"/>
	<path d="M28,16.9h15.8V21H32.6v4.3h9.9v4.1h-9.9v4.4H44v4.1H28V16.9z"/>
	<path d="M47.4,34.4L59,21H47.8v-4h17.1v3.5L53.4,33.8h11.5v4.1H47.4V34.4z"/>
	<path d="M76.5,16.8h4.3l9,21.1h-4.8L83,33.2h-8.9l-1.9,4.7h-4.7L76.5,16.8z M81.4,29.1l-2.8-6.8l-2.8,6.8H81.4z"/>
	<path d="M93.5,16.9h15.1v2.2H95.8v7.5h11.4v2.2H95.8v9.1h-2.4V16.9z"/>
	<path d="M118.5,16.8h2.2l9.6,21.1h-2.6l-2.5-5.6h-11.4l-2.5,5.6h-2.4L118.5,16.8z M124.4,30.2l-4.8-10.7l-4.8,10.7H124.4z"/>
	<path d="M134.4,16.9h9c2.6,0,4.6,0.8,6,2.1c1,1.1,1.6,2.5,1.6,4.1v0.1c0,3.5-2.4,5.5-5.7,6.1l6.4,8.6h-2.9l-6.1-8.2h-6v8.2h-2.4
		V16.9z M143.3,27.6c3.1,0,5.4-1.6,5.4-4.3v-0.1c0-2.6-2-4.1-5.4-4.1h-6.5v8.5H143.3z"/>
	<path d="M156.1,16.9h2.4v9.3h12.1v-9.3h2.4v21h-2.4v-9.5h-12.1v9.5h-2.4V16.9z"/>
	<path d="M186.7,16.8h2.2l9.6,21.1h-2.5l-2.5-5.6H182l-2.5,5.6h-2.4L186.7,16.8z M192.5,30.2l-4.8-10.7L183,30.2H192.5z"/>
	<path d="M202.6,16.9h7.3c6.6,0,11.2,4.5,11.2,10.4v0.1c0,5.9-4.6,10.5-11.2,10.5h-7.3V16.9z M205,19.1v16.6h4.9
		c5.3,0,8.7-3.6,8.7-8.2v-0.1c0-4.6-3.4-8.3-8.7-8.3H205z"/>
	<path d="M226.3,16.9h2.4v21h-2.4V16.9z"/>
	<path d="M242.6,16.8h2.2l9.6,21.1h-2.5l-2.5-5.6h-11.4l-2.5,5.6H233L242.6,16.8z M248.4,30.2l-4.8-10.7l-4.8,10.7H248.4z"/>
	<path d="M258.5,16.9h2.2L274,33.7V16.9h2.3v21h-1.9l-13.6-17.2v17.2h-2.3V16.9z"/>
</g>
</svg>
